<svg data-name="XMLID 22" xmlns="http://www.w3.org/2000/svg" width="120" height="28.609"><path data-name="XMLID 40" d="M4.405 26.413a2.11 2.11 0 01-.645 1.548 2.106 2.106 0 01-1.554.65H0V12.529q0-4.516 2.657-6.171a10.742 10.742 0 015.772-1.645 9.237 9.237 0 013.271.615 6.131 6.131 0 012.629 1.776 10.267 10.267 0 011.942 6.461 10.52 10.52 0 01-1.942 6.586 6.089 6.089 0 01-4.995 2.453 6.6 6.6 0 01-2.851-.58 4.856 4.856 0 01-2.074-2v6.389zm7.4-12.66a6.616 6.616 0 00-.971-3.877A3.228 3.228 0 008.04 8.521a3.167 3.167 0 00-2.726 1.354 6.59 6.59 0 00-.909 3.877 5.874 5.874 0 00.971 3.683 3.212 3.212 0 002.789 1.354 3.1 3.1 0 002.657-1.354 6.176 6.176 0 00.978-3.683z" fill="#fff"/><path data-name="XMLID 37" d="M17.045.062h2.331a2.153 2.153 0 011.561.643 2.11 2.11 0 01.645 1.548v1.354h-4.537zm0 5.038h2.331a2.132 2.132 0 011.561.65 2.11 2.11 0 01.645 1.548v14.981h-4.537z" fill="#fff"/><path data-name="XMLID 36" d="M34.735 16.986h3.24a7.027 7.027 0 01-2.73 4.132 8.289 8.289 0 01-5.057 1.486 7.238 7.238 0 01-5.769-2.391q-2.081-2.322-2.074-6.655a9.59 9.59 0 012.012-6.461 7.245 7.245 0 015.772-2.384 7.789 7.789 0 016.028 2.322 8.882 8.882 0 011.688 3.289h-4.539a3.765 3.765 0 00-.645-.967 3.123 3.123 0 00-2.4-.905 3.164 3.164 0 00-2.331.905 6.3 6.3 0 00-1.166 4.263c0 1.983.388 3.379 1.165 4.2a3.061 3.061 0 002.532 1.03 3.727 3.727 0 001.884-.448.821.821 0 00.354-.228c.1-.1.229-.221.354-.352a2.542 2.542 0 01.52-.518 1.789 1.789 0 011.162-.318z" fill="#fff"/><path data-name="XMLID 35" d="M43.281 5.1v6.33l5.515-6.33h5.448l-6.16 6.586 6.22 10.593h-5.446l-3.177-5.812c-.645-1.161-1.207-1.658-1.686-1.486s-.715.435-.715.774v6.523h-4.536V.062h2.338a2.126 2.126 0 011.554.643 2.04 2.04 0 01.645 1.486V5.1z" fill="#fff"/><path data-name="XMLID 32" d="M66.473 21.567a7.893 7.893 0 01-2.886.871c-1.02.1-1.915.159-2.692.159a6.853 6.853 0 01-4.086-1.258 4.785 4.785 0 01-1.748-4.167 4.475 4.475 0 011.589-3.876 9.122 9.122 0 014.051-1.548 4.015 4.015 0 00.777-.1 11.36 11.36 0 011.041-.159q2.851-.384 2.851-1.679a1.218 1.218 0 00-1.009-1.255 6.74 6.74 0 00-1.845-.29 4.937 4.937 0 00-1.623.256 1.757 1.757 0 00-1.032.967h-4.342a4.974 4.974 0 011.818-3.3 7.506 7.506 0 014.987-1.482 9.745 9.745 0 015.446 1.23 4.153 4.153 0 011.88 3.614v5.874a7.414 7.414 0 01-.937 4.036 5.637 5.637 0 01-2.24 2.107zm-1.034-7.94a12.367 12.367 0 01-2.525.843l-1.492.325a3.818 3.818 0 00-1.686.843 2.6 2.6 0 00-.451 1.417 2.08 2.08 0 00.583 1.551 2.458 2.458 0 001.686.518 3.875 3.875 0 002.851-1.03 3.826 3.826 0 001.034-2.84v-1.627z" fill="#fff"/><path data-name="XMLID 29" d="M74.832 2.2v5.16a5.387 5.387 0 012.074-2 5.832 5.832 0 012.851-.64 6.037 6.037 0 014.995 2.515 10.371 10.371 0 011.942 6.523 10.414 10.414 0 01-1.942 6.523 5.438 5.438 0 01-2.632 1.777 10.329 10.329 0 01-3.274.546 10.917 10.917 0 01-5.772-1.617q-2.654-1.617-2.654-6.199V0h2.206a2.126 2.126 0 011.554.643 2.1 2.1 0 01.652 1.557zm7.388 11.358a5.927 5.927 0 00-.971-3.614 3.087 3.087 0 00-2.657-1.354 3.284 3.284 0 00-2.789 1.292 6.217 6.217 0 00-.971 3.676 6.656 6.656 0 00.909 3.942 3.159 3.159 0 002.726 1.354 3.22 3.22 0 002.789-1.354 6.783 6.783 0 00.964-3.942z" fill="#fff"/><path data-name="XMLID 26" d="M89.989 20.731a6.357 6.357 0 01-1.942-3.132 14.379 14.379 0 01-.583-4.1 12.91 12.91 0 01.486-3.49 7.326 7.326 0 011.514-2.91 6.766 6.766 0 014.348-2.289 10.052 10.052 0 014.8.422 6.563 6.563 0 013.628 3.358 10.667 10.667 0 011.1 4.969 12.4 12.4 0 01-.451 3.552 9.21 9.21 0 01-1.165 2.515 6.488 6.488 0 01-3.954 2.647 8.826 8.826 0 01-4.306.096 7.538 7.538 0 01-3.475-1.638zm3.115-11.367a5.916 5.916 0 00-1.228 4.422 6.964 6.964 0 001.1 4.1 2.886 2.886 0 001.36.871 3.121 3.121 0 001.977.062 3.33 3.33 0 001.783-1.451 7.231 7.231 0 00.839-3.745 6.574 6.574 0 00-.742-3.483 3.368 3.368 0 00-1.72-1.486 3.163 3.163 0 00-1.942-.035 3.353 3.353 0 00-1.427.745z" fill="#fff"/><path data-name="XMLID 23" d="M106.646 20.731a6.357 6.357 0 01-1.942-3.132 14.379 14.379 0 01-.583-4.1 12.91 12.91 0 01.486-3.49 7.249 7.249 0 011.526-2.91 6.766 6.766 0 014.342-2.289 10.015 10.015 0 014.794.422 6.563 6.563 0 013.628 3.358 10.667 10.667 0 011.1 4.969 12.142 12.142 0 01-.458 3.552 9.01 9.01 0 01-1.165 2.515 6.488 6.488 0 01-3.953 2.646 8.828 8.828 0 01-4.308.1 7.511 7.511 0 01-3.467-1.641zm3.115-11.367a5.916 5.916 0 00-1.228 4.422 6.964 6.964 0 001.1 4.1 2.886 2.886 0 001.36.871 3.12 3.12 0 001.977.062 3.33 3.33 0 001.783-1.451 7.231 7.231 0 00.839-3.745 6.574 6.574 0 00-.742-3.483 3.368 3.368 0 00-1.72-1.486 3.163 3.163 0 00-1.942-.035 3.311 3.311 0 00-1.427.745z" fill="#fff"/></svg>